<svg width="600" height="600" viewBox="0 0 600 600" fill="none" xmlns="http://www.w3.org/2000/svg">
<rect width="600" height="600" rx="120" fill="#118129"/>
<path d="M315.652 309.126C373.282 309.126 420 355.821 420 413.422V464.08C420 470.663 414.661 476 408.075 476L284.348 476C226.718 476 180 429.305 180 371.704L180 312.106C180 310.46 181.335 309.126 182.981 309.126L315.652 309.126Z" fill="white"/>
<path d="M408.075 124C414.661 124 420 129.337 420 135.92L420 186.578C420 244.179 373.282 290.874 315.652 290.874L182.981 290.874C181.335 290.874 180 289.54 180 287.894L180 228.296C180 170.695 226.718 124 284.348 124L408.075 124Z" fill="white"/>
<path d="M241 242C241 198.922 275.922 164 319 164L350.687 164C354.726 164 358 167.274 358 171.312L358 173.176C358 211.187 327.187 242 289.176 242L241 242Z" fill="#118129"/>
<path d="M241 358C241 401.078 275.922 436 319 436L350.687 436C354.726 436 358 432.726 358 428.687L358 426.824C358 388.813 327.187 358 289.176 358L241 358Z" fill="#118129"/>
</svg>
